# xmcd
#
# Track frame offsets:
#	150
#	14972
#	29762
#	42537
#	56870
#	68132
#	81542
#	95165
#	108562
#	118025
#
# Disc length: 1708 seconds
#
# Revision: 3
# Processed by: cddbd v1.5.1PL0 Copyright (c) Steve Scherf et al.
# Submitted via: audiograbber 1.82.02
#
DISCID=9f06aa0a
DTITLE=George Jones - I Am What I Am
DYEAR=1980
DGENRE=Country
TTITLE0=He Stopped Loving Her Today
TTITLE1=I've Aged Twenty Years In Five
TTITLE2=Brother To The Blues
TTITLE3=If Drinkin' Don't Kill Me (Her Memory Will)
TTITLE4=His Lovin' Her Is Gettin' In My Way
TTITLE5=I'm Not Ready Yet
TTITLE6=I'm The One She Missed Him With Today
TTITLE7=Good Hearted Woman
TTITLE8=A Hard Act To Follow
TTITLE9=Bone Dry
EXTD=
EXTT0=
EXTT1=
EXTT2=
EXTT3=
EXTT4=
EXTT5=
EXTT6=
EXTT7=
EXTT8=
EXTT9=
PLAYORDER=
